# xmcd
# 
# Track frame offsets:
#     150
#     24265
#     42030
#     58951
#     75315
#     97849
#     116360
#     136852
#     158014
#     174888
#     193136
#     197845
# 
# Disc length: 2860
# 
# Revision: 2
# Processed by: cddbd v1.5.2PL0 Copyright (c) Steve Scherf et al.
# Submitted via: fre:ac v1.1beta1pre4
# 
DISCID=890b2a0c
DTITLE=Reckless Kelly - Long Night Moon
DYEAR=2013
DGENRE=Americana
TTITLE0=Long Night Moon
TTITLE1=Real Cool Hand
TTITLE2=Irish Goodbye
TTITLE3=Every Step Of The Way
TTITLE4=Be My Friend (In Real Life)
TTITLE5=The Girl I Knew
TTITLE6=I Can't Stand It
TTITLE7=The Last Goodbye
TTITLE8=Didn't Mean To Break Your Heart
TTITLE9=The Only Home I've Ever Known
TTITLE10=Long Night Moon (reprise)
TTITLE11=Idaho
EXTD=
EXTT0=
EXTT1=
EXTT2=
EXTT3=
EXTT4=
EXTT5=
EXTT6=
EXTT7=
EXTT8=
EXTT9=
EXTT10=
EXTT11=
PLAYORDER=
